<?xml version="1.0" encoding="UTF-8"?>
<svg version="1.1" xmlns="http://www.w3.org/2000/svg" width="2000" height="2000">
<path d="M0 0 C660 0 1320 0 2000 0 C2000 660 2000 1320 2000 2000 C1340 2000 680 2000 0 2000 C0 1340 0 680 0 0 Z " fill="#5F0B72" transform="translate(0,0)"/>
<path d="M0 0 C1.55690619 1.18863311 3.09963136 2.39615661 4.625 3.625 C5.30949219 4.13546875 5.99398437 4.6459375 6.69921875 5.171875 C28.08937771 22.14952573 33.23099288 53.49634664 36.19506836 79.00512695 C37.08728181 87.70476523 37.06122204 96.45082388 37.0625 105.1875 C37.06609528 106.67295319 37.06609528 106.67295319 37.06976318 108.18841553 C37.07017205 128.61567789 34.88004813 148.486291 31.625 168.625 C31.44388672 169.78128906 31.26277344 170.93757813 31.07617188 172.12890625 C30.24867202 177.29838411 29.30516163 182.33179846 27.875 187.375 C26.60802454 191.95200729 25.39228207 196.52797747 24.27734375 201.14453125 C21.36799655 213.17443535 18.06599042 224.9590797 14.20703125 236.71875 C12.90413926 240.69959783 11.76137439 244.70050011 10.6875 248.75 C-0.8643015 290.28626017 -26.49430891 340.73097101 -65.203125 362.87109375 C-77.39512959 369.59871172 -88.94077514 374.03418393 -103 373.9375 C-103.87100342 373.93186035 -104.74200684 373.9262207 -105.6394043 373.92041016 C-122.58624628 373.60637823 -137.53369566 368.24325772 -152.0625 359.8125 C-152.71460449 359.43472412 -153.36670898 359.05694824 -154.03857422 358.66772461 C-160.48648677 354.78796728 -166.40771128 350.19461293 -172.375 345.625 C-175.07239827 362.23611627 -177.73858649 378.85124131 -180.31686401 395.48129272 C-181.53087305 403.31029895 -182.78197532 411.12963132 -184.125 418.9375 C-185.19042468 425.14635417 -185.97328584 431.33609562 -186.375 437.625 C-185.385 437.295 -184.395 436.965 -183.375 436.625 C-181.31813946 436.33806805 -179.25573208 436.09035856 -177.19140625 435.86328125 C-175.24548584 435.64381836 -175.24548584 435.64381836 -173.26025391 435.41992188 C-172.55942688 435.34185303 -171.85859985 435.26378418 -171.13653564 435.18334961 C-154.87290951 433.36509526 -138.66397666 431.21627246 -122.46313477 428.9074707 C-92.49686204 424.68202829 -62.35067711 421.85682002 -32.22314453 419.07006836 C-28.58478326 418.73343236 -24.94678374 418.39325016 -21.30908203 418.04956055 C0.63736097 415.97620291 22.58059176 414.09251569 44.57974243 412.66697693 C53.095741 412.10382623 61.48634187 411.30008767 69.94186401 410.09999084 C76.63299734 409.23707753 83.3573433 408.82358898 90.0859375 408.37109375 C91.61238802 408.26471157 93.13880551 408.15785432 94.66519165 408.05055237 C98.6364276 407.77239233 102.60800559 407.49950073 106.57971191 407.22814941 C112.9543335 406.79185741 119.3284268 406.34795746 125.70244217 405.90291023 C127.90732709 405.74981614 130.11238057 405.59937711 132.31747437 405.44932556 C139.10853907 404.98209336 145.86368916 404.41493791 152.625 403.625 C166.06614931 402.86617685 176.8901283 403.63675277 187.625 412.625 C196.5754872 421.84029451 200.05370445 432.841837 199.8984375 445.49609375 C199.24127169 453.0159482 195.97158556 459.45789116 190.7578125 464.87890625 C172.62309939 479.72545709 136.03120482 478.54066704 113.625 481.625 C112.26903821 481.81246556 110.91308076 481.99996255 109.55712891 482.1875 C92.00760404 484.60389283 74.42854712 486.77416044 56.84838867 488.953125 C43.71820985 490.5828113 30.60094828 492.27476539 17.5 494.125 C4.28008814 495.99049664 -8.94829665 497.77640932 -22.1875 499.5 C-23.13101318 499.62291412 -24.07452637 499.74582825 -25.04663086 499.87246704 C-36.97214773 501.42404237 -48.90102992 502.94823947 -60.83203125 504.45703125 C-62.05370499 504.61171875 -63.27537872 504.76640625 -64.53407288 504.92578125 C-70.48821359 505.6795279 -76.44263763 506.43085588 -82.39770508 507.17724609 C-93.10490668 508.52562381 -103.78980265 509.94882885 -114.45695496 511.58511353 C-122.07925679 512.74922708 -129.71870802 513.7103896 -137.375 514.625 C-143.19991667 515.32740153 -149.02420608 516.03485001 -154.84790039 516.74731445 C-156.57585076 516.95762688 -158.30404356 517.16595694 -160.0324707 517.37231445 C-168.63278624 518.40078069 -177.22514505 519.46531922 -185.74609375 521.03515625 C-186.88876709 521.24406494 -188.03144043 521.45297363 -189.20874023 521.66821289 C-195.5246628 523.5767718 -199.22093553 526.90958116 -202.375 532.625 C-203.51428536 535.85388863 -203.51428536 535.85388863 -204.3125 539.25 C-208.13869346 553.37862877 -214.05661602 568.68857909 -227.3828125 576.35546875 C-235.88687425 580.66897477 -242.72283671 582.94705388 -252.375 581.625 C-259.96969294 577.93216765 -263.86533389 566.8914918 -267.375 559.625 C-267.94347656 558.53058594 -268.51195312 557.43617188 -269.09765625 556.30859375 C-270.76988329 551.48623871 -270.70450166 547.24494366 -270.5625 542.1875 C-270.54219727 540.80401367 -270.54219727 540.80401367 -270.52148438 539.39257812 C-270.48640953 537.13609617 -270.43726387 534.88086774 -270.375 532.625 C-270.94605469 532.73046143 -271.51710938 532.83592285 -272.10546875 532.94458008 C-274.86075691 533.44915044 -277.61784688 533.94322548 -280.375 534.4375 C-281.71884766 534.6859668 -281.71884766 534.6859668 -283.08984375 534.93945312 C-289.25263122 536.03551935 -295.40812409 536.88845017 -301.62260437 537.62841797 C-315.04463803 539.22758077 -328.28200209 541.43522503 -341.5625 543.9375 C-343.70966862 544.33692898 -345.85688599 544.73609597 -348.00415039 545.13500977 C-362.94013669 547.92234513 -377.83302494 550.87817215 -392.69067383 554.05688477 C-395.94323923 554.74526309 -399.20257476 555.39498482 -402.46362305 556.04174805 C-406.19590361 556.78945608 -409.92414444 557.55648283 -413.65234375 558.32421875 C-414.41483932 558.48115204 -415.1773349 558.63808533 -415.9629364 558.79977417 C-417.5742539 559.13141669 -419.18556663 559.46308239 -420.796875 559.79476929 C-434.08002035 562.52852027 -447.36815413 565.23290442 -460.66995239 567.87445068 C-476.87647519 571.09399851 -493.03074084 574.50256363 -509.14453125 578.16015625 C-519.7310174 580.55461357 -530.27398504 582.90396043 -540.99975586 584.58251953 C-551.44606265 586.23033979 -561.85001601 588.3737598 -572.0625 591.125 C-577.05154617 592.43753548 -582.06362938 593.22384107 -587.15625 594.00390625 C-605.96000469 596.52808933 -605.96000469 596.52808933 -620.80883789 607.45703125 C-626.1898808 615.59314704 -628.65909696 624.8916119 -631.5 634.125 C-632.51779659 637.38720139 -633.54261087 640.64715669 -634.5703125 643.90625 C-634.81404099 644.68212967 -635.05776947 645.45800934 -635.30888367 646.25740051 C-636.85609673 651.13563936 -638.56294539 655.90073794 -640.5390625 660.62451172 C-641.74933362 663.52082058 -642.77720285 666.47490227 -643.8125 669.4375 C-664.24528584 727.88808249 -691.77817671 786.60864165 -731.375 834.625 C-732.68972089 836.26905979 -734.00217229 837.91493667 -735.3125 839.5625 C-735.97894531 840.39265625 -736.64539063 841.2228125 -737.33203125 842.078125 C-738.6899416 843.77096926 -740.04156128 845.46887953 -741.38671875 847.171875 C-747.96179865 855.38768648 -755.11402421 863.01620665 -762.375 870.625 C-763.13039063 871.42292969 -763.88578125 872.22085938 -764.6640625 873.04296875 C-788.03541184 897.13565603 -825.14145814 919.85935094 -859.5546875 920.79296875 C-887.86535902 921.0766791 -908.80957847 914.55821147 -929.375 894.625 C-929.97441406 894.0990625 -930.57382812 893.573125 -931.19140625 893.03125 C-941.53876122 883.62019862 -948.0286599 870.70476723 -952.375 857.625 C-952.7875 856.47644531 -953.2 855.32789063 -953.625 854.14453125 C-964.42224852 819.16594489 -951.28348969 776.15365015 -937.375 743.625 C-937.12443848 743.02977539 -936.87387695 742.43455078 -936.61572266 741.82128906 C-922.88514232 709.35278461 -904.67971062 678.95241861 -880.62109375 653.0546875 C-878.75245905 651.03331222 -876.961462 648.97847657 -875.1875 646.875 C-867.01873525 637.48092054 -857.92938987 628.59910105 -848.375 620.625 C-846.98667969 619.42037109 -846.98667969 619.42037109 -845.5703125 618.19140625 C-808.75875381 586.33303191 -765.78968638 564.17836077 -722.4375 542.6875 C-715.73496159 539.35339119 -709.07763435 535.95008314 -702.5 532.375 C-701.79238525 531.99867432 -701.08477051 531.62234863 -700.35571289 531.23461914 C-698.30668125 530.10183915 -696.33832182 528.90034508 -694.375 527.625 C-693.68349854 527.1815625 -692.99199707 526.738125 -692.27954102 526.28125 C-685.38296966 521.15313404 -683.47279571 514.00665717 -681.0625 506.125 C-680.64502665 504.81822566 -680.22511868 503.51222651 -679.80273438 502.20703125 C-679.02441459 499.79906576 -678.25758085 497.38733196 -677.5065918 494.97070312 C-676.375 491.625 -676.375 491.625 -674.90014648 488.20629883 C-673.26602981 484.36911979 -671.99423024 480.52528411 -670.7734375 476.54296875 C-670.28270005 474.96767131 -669.79189328 473.39239547 -669.30102539 471.81713867 C-669.04789581 471.00006439 -668.79476624 470.18299011 -668.53396606 469.34115601 C-664.35576144 455.86449841 -660.02410768 442.47166479 -655.32666016 429.16601562 C-653.01838064 422.59408263 -650.94520982 415.99726172 -649.05615234 409.29394531 C-647.23169023 402.90268193 -644.88879029 396.77576348 -642.375 390.625 C-648.36554338 395.3790184 -654.12518457 400.25768959 -659.6875 405.5 C-665.75653526 411.19068458 -672.1299467 416.37351757 -678.75976562 421.39501953 C-680.2326116 422.51657304 -681.68765675 423.66140554 -683.140625 424.80859375 C-701.01569236 438.53600327 -719.99690668 444.09326548 -742.375 442.625 C-758.30572705 440.16388559 -772.80238125 429.60776459 -782.36328125 417.00390625 C-796.9887549 395.42585197 -796.7668308 370.10874103 -792.1875 345.3125 C-791.30042436 340.73858527 -790.35041175 336.18079489 -789.375 331.625 C-788.97467213 329.6863193 -788.5749039 327.74752293 -788.17578125 325.80859375 C-786.97332837 320.06571492 -785.68271484 314.34469985 -784.375 308.625 C-784.10397461 307.4302002 -783.83294922 306.23540039 -783.55371094 305.00439453 C-777.68890995 279.20909947 -777.68890995 279.20909947 -774.29125977 267.41040039 C-772.00008511 259.44211082 -769.98219996 251.40297792 -767.9609375 243.36254883 C-765.45861772 233.55330982 -762.59319292 224.04430089 -758.34814453 214.84082031 C-756.58239064 210.82025275 -755.22014179 206.65649734 -753.8125 202.5 C-750.69529306 193.33499688 -750.69529306 193.33499688 -748.87890625 189.30859375 C-746.68887595 183.94444161 -745.31029538 178.41919567 -743.875 172.8125 C-743.56675293 171.60924072 -743.25850586 170.40598145 -742.94091797 169.16625977 C-739.5632359 155.72653651 -737.35324903 142.81368898 -736.78100586 128.97729492 C-736.36398863 120.24315452 -735.21281684 111.49301982 -729.375 104.625 C-722.44207705 98.51742502 -715.68473259 98.98527851 -706.82763672 99.3984375 C-693.15468865 100.6614771 -681.28151733 107.31091318 -672.375 117.625 C-666.60146181 125.986676 -666.14786342 134.77543438 -667.375 144.625 C-668.9826861 152.66949265 -671.2440684 160.55248566 -673.48803711 168.43823242 C-674.32367706 171.44060189 -675.09347189 174.44997863 -675.8359375 177.4765625 C-677.63136829 184.75700144 -679.65366266 191.97104217 -681.6875 199.1875 C-681.88608612 199.89453064 -682.08467224 200.60156128 -682.28927612 201.33001709 C-684.54322289 209.34608335 -686.8493923 217.33418235 -689.4375 225.25 C-693.65457103 238.20632799 -696.96381695 251.43856413 -700.375 264.625 C-700.66971191 265.76388672 -700.96442383 266.90277344 -701.26806641 268.07617188 C-702.81570508 274.08791216 -704.32311417 280.10746239 -705.77294922 286.14355469 C-706.29913884 288.3123265 -706.85143656 290.47228174 -707.41015625 292.6328125 C-710.44610783 305.48265407 -712.56379779 321.75494453 -706.4375 333.875 C-705.43819052 335.47200523 -704.42200171 337.05884785 -703.375 338.625 C-703.045 339.615 -702.715 340.605 -702.375 341.625 C-695.65146133 344.34946709 -685.83016936 343.52898771 -679.125 341.1875 C-673.26454016 338.45325609 -668.92360161 334.13206187 -664.375 329.625 C-663.47652344 328.77550781 -662.57804687 327.92601562 -661.65234375 327.05078125 C-645.80737054 311.7852304 -636.38825884 294.18696975 -628.625 273.8125 C-628.06989532 272.37530894 -627.51390731 270.93845875 -626.95703125 269.50195312 C-625.89491445 266.7598861 -624.83729006 264.01615902 -623.78320312 261.27099609 C-622.29889667 257.42795993 -620.77207316 253.60393989 -619.23339844 249.7824707 C-617.89408394 246.41628122 -616.63275948 243.02231772 -615.375 239.625 C-613.75384774 235.27220619 -612.12025739 230.92996822 -610.375 226.625 C-607.84553225 220.37449704 -605.51620244 214.04827908 -603.16162109 207.73046875 C-602.38903132 205.6625562 -601.61148654 203.59658353 -600.83203125 201.53125 C-597.96762913 193.9362305 -595.17795919 186.32106982 -592.4609375 178.671875 C-590.89139404 174.26811997 -589.30824937 169.87328258 -587.515625 165.5546875 C-584.89016832 159.20624717 -582.6986349 152.74899282 -580.5690918 146.22119141 C-578.24884319 139.12916938 -575.60365991 132.19408964 -572.875 125.25 C-571.38011268 121.38375868 -570.0051455 117.55011567 -568.875 113.5625 C-561.41716218 87.87439196 -546.68920888 67.68095697 -523.375 54.625 C-520.4319328 53.07601726 -517.48824048 51.79116366 -514.375 50.625 C-513.00214844 50.068125 -513.00214844 50.068125 -511.6015625 49.5 C-504.83350729 47.04508829 -498.57756435 46.23964731 -491.4375 46.1875 C-490.6326416 46.17750977 -489.8277832 46.16751953 -488.99853516 46.15722656 C-483.35976101 46.23964757 -479.0065221 47.16849599 -474.73046875 51.16015625 C-469.33336366 58.21790906 -469.63596449 65.00223094 -470.375 73.625 C-471.04724289 76.77158269 -471.99694188 79.67004104 -473.05859375 82.70703125 C-474.82728913 87.78507379 -476.12863572 92.9912502 -477.5 98.1875 C-480.20776136 108.36093552 -483.00504761 118.50622876 -485.84118652 128.6444397 C-490.51317974 145.32268462 -490.51317974 145.32268462 -494.75439453 162.11474609 C-496.24864372 168.34452376 -498.02189816 174.48772259 -499.80181885 180.64123535 C-500.8107126 184.13298965 -501.81114812 187.62717059 -502.8125 191.12109375 C-503.02166046 191.8508844 -503.23082092 192.58067505 -503.44631958 193.33258057 C-503.87410809 194.82529896 -504.30183188 196.31803589 -504.72949219 197.81079102 C-505.15935648 199.31027601 -505.58969401 200.80962542 -506.02050781 202.30883789 C-508.59852037 211.28200376 -511.09998674 220.26849916 -513.48583984 229.29467773 C-514.66028031 233.6935087 -515.91579765 238.06602316 -517.1875 242.4375 C-519.49917154 250.45760014 -521.71319534 258.50075773 -523.875 266.5625 C-524.16995361 267.66231201 -524.46490723 268.76212402 -524.76879883 269.89526367 C-525.35651289 272.08847996 -525.94399971 274.28175715 -526.53125 276.47509766 C-530.11075495 289.83816852 -533.79369146 303.16015263 -537.69262695 316.43383789 C-542.11799084 331.52302323 -546.35003283 346.66617324 -550.359375 361.87109375 C-551.58676183 366.4077043 -552.88537846 370.92188198 -554.1875 375.4375 C-556.46268085 383.33176457 -558.63246233 391.24957107 -560.75 399.1875 C-565.0977882 415.44533172 -569.74704056 431.61469074 -574.45599365 447.77105713 C-575.43788047 451.14044046 -576.4178766 454.51037311 -577.39807129 457.88024902 C-578.10242499 460.2975247 -578.81035712 462.71373102 -579.51855469 465.12988281 C-582.37354973 474.91111797 -584.96559276 484.72438174 -587.375 494.625 C-588.03827769 497.29252666 -588.70642575 499.95879356 -589.375 502.625 C-588.40626953 502.35236328 -588.40626953 502.35236328 -587.41796875 502.07421875 C-581.08593974 500.38510021 -574.78541179 499.15440524 -568.3125 498.1875 C-562.0440948 497.25050851 -555.87219595 496.13304083 -549.6875 494.75 C-531.8487427 490.8160503 -513.61866347 488.55099324 -495.56005859 485.86132812 C-487.09231071 484.59335512 -478.6303382 483.28765186 -470.17047119 481.9682312 C-468.44638846 481.70000962 -466.72206659 481.43332024 -464.99749756 481.16824341 C-462.55363332 480.79222549 -460.11073288 480.41043514 -457.66796875 480.02734375 C-456.93641068 479.91595062 -456.2048526 479.8045575 -455.4511261 479.68978882 C-450.97250689 478.97983845 -446.7346671 477.89845134 -442.375 476.625 C-439.61840016 476.28178698 -436.88938899 475.99056795 -434.125 475.75 C-427.91235369 475.14014635 -421.94940539 474.17462512 -415.875 472.75 C-405.08664612 470.25278295 -394.11028952 469.18629834 -383.11523438 468.02001953 C-382.39402405 467.94156799 -381.67281372 467.86311646 -380.92974854 467.7822876 C-378.95017711 467.56790541 -376.96973914 467.36156854 -374.98925781 467.15576172 C-371.31343318 466.61595878 -367.93073648 465.68671657 -364.375 464.625 C-362.98587798 464.36149864 -361.58975257 464.13027307 -360.1875 463.94921875 C-359.42284424 463.84617432 -358.65818848 463.74312988 -357.87036133 463.63696289 C-357.04689209 463.52989014 -356.22342285 463.42281738 -355.375 463.3125 C-346.28932769 462.07328408 -337.23725791 460.66504554 -328.1875 459.1875 C-319.48277987 457.76732959 -310.77641033 456.36867361 -302.05517578 455.05249023 C-292.79528373 453.65325794 -283.54204263 452.21305538 -274.3125 450.625 C-273.43843506 450.48312256 -272.56437012 450.34124512 -271.66381836 450.19506836 C-261.68927426 448.48691721 -261.68927426 448.48691721 -253.75561523 442.69726562 C-250.53651738 437.38083262 -249.47843304 432.23416556 -248.875 426.125 C-247.87190456 417.83744951 -246.5254865 409.68386629 -244.875 401.5 C-244.67326172 400.48228516 -244.47152344 399.46457031 -244.26367188 398.41601562 C-242.90501459 391.7363147 -241.24791184 385.17858242 -239.375 378.625 C-240.07882812 378.87145264 -240.78265625 379.11790527 -241.5078125 379.37182617 C-269.32581664 389.09768679 -269.32581664 389.09768679 -281.375 392.625 C-282.14457031 392.86992188 -282.91414063 393.11484375 -283.70703125 393.3671875 C-293.525998 396.10823749 -305.79187503 396.44094378 -315.0625 392.0625 C-327.71372815 384.57646293 -333.20043479 372.95065023 -338.375 359.625 C-342.66833694 363.61278924 -345.84153748 367.9767484 -349.125 372.8125 C-353.78838659 379.54141794 -358.66015958 385.74299789 -364.375 391.625 C-365.09042969 392.40230469 -365.80585937 393.17960937 -366.54296875 393.98046875 C-378.20172885 406.29954801 -394.58758251 415.2273211 -411.72265625 415.9609375 C-432.84947495 416.29698338 -451.35992418 412.45529016 -467.84375 398.12890625 C-479.30135139 386.79507525 -485.25460493 372.97347165 -489.375 357.625 C-489.54773438 356.99110352 -489.72046875 356.35720703 -489.8984375 355.70410156 C-494.93526649 336.93461381 -495.78708233 318.10795527 -495.75 298.75 C-495.74978851 297.72407745 -495.74957703 296.69815491 -495.74935913 295.6411438 C-495.71454287 278.6480056 -494.69977727 262.32965019 -491.375 245.625 C-491.18244629 244.64966309 -490.98989258 243.67432617 -490.79150391 242.66943359 C-489.49227129 236.27529881 -487.97608619 229.94934759 -486.375 223.625 C-486.14022949 222.67399414 -485.90545898 221.72298828 -485.66357422 220.74316406 C-481.78195253 205.03492915 -477.12365783 189.7477116 -471.375 174.625 C-471.1282251 173.97233154 -470.8814502 173.31966309 -470.62719727 172.6472168 C-455.58877733 133.01979671 -437.08430795 95.39687261 -407.375 64.625 C-406.43337982 63.61999206 -405.49197729 62.61478016 -404.55078125 61.609375 C-389.87180481 46.17718729 -370.04747308 31.31251162 -348.00390625 30.38671875 C-326.78733364 29.91859807 -309.27670364 37.76610218 -290.375 46.625 C-290.13007812 45.94179688 -289.88515625 45.25859375 -289.6328125 44.5546875 C-285.54677695 35.03752396 -278.89124101 24.3831205 -269.375 19.625 C-254.95518829 18.52063805 -240.04820959 19.88140069 -228.1484375 29 C-222.7053437 33.98750445 -221.0314526 38.09297483 -220.625 45.5625 C-220.74580553 57.70757427 -224.09577532 69.6679717 -226.76835632 81.45388794 C-228.69595826 89.97602887 -230.47035535 98.52912501 -232.24584961 107.08401489 C-233.19099645 111.63500282 -234.14231512 116.18469818 -235.09375 120.734375 C-235.28199341 121.63507217 -235.47023682 122.53576935 -235.66418457 123.46376038 C-236.98442802 129.77494662 -238.31745756 136.08335012 -239.65625 142.390625 C-240.02290093 144.1208426 -240.38951934 145.85106709 -240.75610352 147.58129883 C-241.27587677 150.03438048 -241.79643859 152.48727668 -242.32003784 154.93954468 C-244.03062089 162.95114827 -245.68336095 170.94886289 -246.92236328 179.05053711 C-247.41123708 181.83110573 -248.08383202 184.52317027 -248.8125 187.25 C-250.30702364 192.98776917 -251.30085645 198.74869665 -252.19702148 204.60400391 C-252.88494854 209.00492808 -253.7499183 213.32412184 -254.73828125 217.66796875 C-256.83095328 227.29917793 -258.19691463 237.03953393 -259.59204102 246.79223633 C-260.06127484 250.05398368 -260.54692805 253.31302104 -261.03320312 256.57226562 C-264.83225936 278.02020336 -264.83225936 278.02020336 -259.46875 298.453125 C-258.375 300.625 -258.375 300.625 -258.375 303.625 C-242.54473936 299.93539498 -233.51338037 294.93164495 -224.26196289 280.94189453 C-221.78259782 276.85533168 -220.42677253 272.92897987 -219.3125 268.25 C-219.06391235 267.20755127 -219.06391235 267.20755127 -218.81030273 266.14404297 C-217.37401739 259.96475643 -216.27221967 253.73341497 -215.21484375 247.48046875 C-214.22319573 241.65928648 -213.11319239 235.8614758 -212 230.0625 C-211.72265015 228.60384521 -211.72265015 228.60384521 -211.43969727 227.11572266 C-210.25084086 220.93603817 -208.99159366 214.77448304 -207.69621277 208.61637878 C-204.52328299 193.52630143 -201.58875724 178.39434651 -198.6875 163.25 C-197.95749576 159.44826759 -197.22696402 155.64663706 -196.49613953 151.84506226 C-196.04699229 149.5077935 -195.59839559 147.17041885 -195.15046692 144.83291626 C-194.05573625 139.12699655 -192.94049334 133.42601365 -191.79530334 127.73001099 C-191.31326021 125.31578774 -190.85509623 122.89788794 -190.41015625 120.4765625 C-187.48289961 104.72470893 -187.48289961 104.72470893 -185.875 98.75 C-184.5004309 93.49900057 -183.58343333 88.22310571 -182.6875 82.875 C-180.90469307 72.41694324 -179.01577997 61.97931576 -177.01205444 51.56140137 C-176.67409247 49.78834477 -176.3427527 48.01401146 -176.01846313 46.23840332 C-173.13720671 30.51005443 -169.31007743 19.35956696 -155.8125 9.8125 C-147.23245813 5.6324796 -137.19477795 5.10915086 -128.015625 7.5 C-121.03167584 10.19431541 -114.09757119 13.88429912 -110.2578125 20.5703125 C-108.38450227 25.11978019 -107.81019692 29.75079454 -107.375 34.625 C-104.45129592 34.93333562 -104.45129592 34.93333562 -102.8762207 33.45092773 C-102.35632568 32.90895752 -101.83643066 32.3669873 -101.30078125 31.80859375 C-100.42909302 30.91454834 -100.42909302 30.91454834 -99.53979492 30.00244141 C-98.9285376 29.36226074 -98.31728027 28.72208008 -97.6875 28.0625 C-96.42108713 26.76515161 -95.15287334 25.46955861 -93.8828125 24.17578125 C-93.27469727 23.55525879 -92.66658203 22.93473633 -92.04003906 22.29541016 C-89.54203962 19.78935265 -86.91641249 17.46879975 -84.2109375 15.19140625 C-82.8937546 14.06759701 -81.61061879 12.90341233 -80.3515625 11.71484375 C-58.83062363 -8.44646902 -25.912168 -17.28778678 0 0 Z " fill="#FEFDFE" transform="translate(1329.375,873.375)"/>
<path d="M0 0 C0.93171021 -0.00139984 1.86342041 -0.00279968 2.82336426 -0.00424194 C20.48745971 0.01739509 37.13223312 1.92408798 54.4375 5.4375 C55.51918457 5.64568359 56.60086914 5.85386719 57.71533203 6.06835938 C73.61708469 9.13220447 89.76010435 12.86133555 104.3984375 19.9765625 C106.88707906 21.17290176 109.38250099 22.29825827 111.9140625 23.3984375 C139.5273614 35.4429669 163.79072377 51.63278948 186.4375 71.4375 C187.32050781 72.20835937 188.20351562 72.97921875 189.11328125 73.7734375 C198.76672539 82.33092297 207.40809181 91.34525198 215.4375 101.4375 C216.37152785 102.56040236 217.30783287 103.68141346 218.24609375 104.80078125 C245.35153702 137.42176344 263.73345298 178.088702 272.4375 219.4375 C272.80367432 221.13205322 272.80367432 221.13205322 273.17724609 222.86083984 C279.84258034 254.86938302 280.59593243 290.27909242 274.4375 322.4375 C274.23906494 323.53336426 274.04062988 324.62922852 273.83618164 325.75830078 C272.09214201 335.0031188 269.76828021 343.99540389 267.15844727 353.02832031 C266.49529997 355.32880459 265.8458107 357.63286181 265.19726562 359.9375 C263.08641222 367.35499487 260.82042853 374.488133 257.4375 381.4375 C256.77377705 382.95173722 256.11644322 384.4687877 255.46484375 385.98828125 C245.2280941 409.44402482 232.39275247 430.46834753 216.4375 450.4375 C215.67953125 451.40171875 214.9215625 452.3659375 214.140625 453.359375 C201.67910292 468.67831615 187.15022301 483.67417705 171.1015625 495.23095703 C169.30682775 496.53224505 167.5437642 497.87027869 165.78125 499.21484375 C145.56356876 514.5283269 120.49898033 530.29785758 95.8515625 536.69921875 C93.30204999 537.41896311 93.30204999 537.41896311 90.4921875 538.80078125 C84.88113406 541.25684102 78.86923751 542.49281086 72.9375 543.9375 C71.67663574 544.24647217 70.41577148 544.55544434 69.11669922 544.8737793 C65.55933966 545.73865459 61.99931988 546.59120646 58.4375 547.4375 C57.64118164 547.62908691 56.84486328 547.82067383 56.02441406 548.01806641 C37.0347026 552.51562965 17.17743231 552.90963755 -2.25 552.9375 C-3.30677948 552.9398465 -4.36355896 552.94219299 -5.45236206 552.9446106 C-34.06214368 552.91855604 -62.65593445 548.85597417 -89.4453125 538.30175781 C-96.37104035 535.3795251 -96.37104035 535.3795251 -103.5625 536.4375 C-106.2026914 537.96948173 -108.62110788 539.73385857 -111.0625 541.5625 C-112.57022326 542.65946693 -114.07941278 543.75442061 -115.58984375 544.84765625 C-116.39147949 545.43047363 -117.19311523 546.01329102 -118.01904297 546.61376953 C-122.49774038 549.82512197 -127.06361344 552.90778863 -131.625 556 C-133.50403747 557.27715071 -135.3829456 558.55449174 -137.26171875 559.83203125 C-138.16196777 560.44385254 -139.0622168 561.05567383 -139.98974609 561.68603516 C-145.55632657 565.47562031 -151.10016663 569.29831055 -156.64599609 573.11816406 C-158.6446675 574.49406474 -160.64444566 575.86834346 -162.64453125 577.2421875 C-163.32443115 577.70931152 -164.00433105 578.17643555 -164.70483398 578.65771484 C-166.05175043 579.58288582 -167.39891225 580.50769968 -168.74633789 581.43212891 C-171.95857127 583.6380195 -175.16290844 585.85388253 -178.3515625 588.09375 C-179.24452026 588.71902588 -179.24452026 588.71902588 -180.15551758 589.35693359 C-181.76840348 590.48776287 -183.37844515 591.62264577 -184.98828125 592.7578125 C-189.64370976 595.79549726 -194.14389191 596.13268171 -199.5625 595.4375 C-203.15082539 593.29977424 -205.09538137 591.3153466 -206.5625 587.4375 C-206.76656871 584.80861484 -206.84462561 582.31531868 -206.8125 579.6875 C-206.80718262 578.86080811 -206.80186523 578.03411621 -206.79638672 577.18237305 C-206.66880647 568.19442499 -206.02657569 559.23903778 -205.41723633 550.2734375 C-204.40875272 535.17415692 -203.83929638 520.05765187 -203.26025391 504.93676758 C-202.40147611 482.80642297 -202.40147611 482.80642297 -201.11328125 473.02734375 C-200.70289069 468.45922588 -200.80058067 465.54949037 -203.44140625 461.6953125 C-205.16074941 459.83874477 -206.92597882 458.02398099 -208.7265625 456.24609375 C-229.11945891 436.04982306 -243.65532302 407.6544905 -254.5625 381.4375 C-254.86478516 380.80263672 -255.16707031 380.16777344 -255.47851562 379.51367188 C-258.81473549 372.45299355 -260.92790123 365.05112004 -263.0625 357.5625 C-263.26014954 356.87431183 -263.45779907 356.18612366 -263.66143799 355.4770813 C-270.82358241 330.47775219 -275.11798706 305.75995921 -274.89868164 279.68603516 C-274.8748976 276.67453445 -274.87818162 273.66391618 -274.88476562 270.65234375 C-274.86220445 253.84101103 -273.36687239 237.71068875 -269.875 221.25 C-269.61662354 220.01967041 -269.35824707 218.78934082 -269.09204102 217.52172852 C-265.67037368 201.72368735 -261.26494905 186.17516174 -254.5625 171.4375 C-253.99356335 170.10133503 -253.42737889 168.76399633 -252.86328125 167.42578125 C-242.65964857 143.47046467 -229.13547311 121.50105359 -212.5625 101.4375 C-212.09908203 100.87111816 -211.63566406 100.30473633 -211.15820312 99.72119141 C-200.16818867 86.34548452 -188.18516571 74.14102306 -174.5625 63.4375 C-173.77617188 62.76074219 -172.98984375 62.08398438 -172.1796875 61.38671875 C-152.08189109 44.15553594 -128.02159307 30.40638953 -103.5625 20.4375 C-102.34433594 19.92960937 -101.12617187 19.42171875 -99.87109375 18.8984375 C-79.93115834 10.99012801 -58.80141086 5.40143888 -37.5625 2.4375 C-36.34103271 2.26307373 -35.11956543 2.08864746 -33.86108398 1.90893555 C-22.57493801 0.38665877 -11.38002801 -0.00165311 0 0 Z " fill="#01CFB4" transform="translate(1064.5625,209.5625)"/>
<path d="M0 0 C22.07330058 -0.73491498 42.9738355 2.03209425 59.95361328 17.46923828 C72.37548071 29.39242509 79.44351574 44.4758668 79.87402344 61.71948242 C80.12621662 109.67581771 55.42084851 153.70116461 22.39111328 187.09423828 C19.82815372 189.58250321 17.18362109 191.8684756 14.39111328 194.09423828 C13.48619141 194.83673828 12.58126953 195.57923828 11.64892578 196.34423828 C-11.45844771 214.96919553 -38.956986 227.92416315 -67.92138672 234.21923828 C-74.85093461 235.75161186 -80.63855613 237.1942021 -85.08154297 243.02783203 C-94.04719629 257.69177231 -94.79546722 279.1558097 -91.99560547 295.72314453 C-89.31811729 304.0151013 -83.58095583 310.65040749 -76.17138672 315.15673828 C-67.00942562 319.20209649 -55.89744457 318.32813405 -46.67138672 314.96923828 C-30.6680155 307.8368716 -16.9290863 296.30430724 -3.60888672 285.09423828 C-3.08117676 284.6567627 -2.5534668 284.21928711 -2.00976562 283.76855469 C4.82366688 278.10127728 11.31831389 272.26666696 17.51611328 265.90673828 C33.51565212 249.50052671 33.51565212 249.50052671 42.14111328 248.78173828 C46.56366981 248.8458333 48.97596017 250.22240498 52.39111328 253.09423828 C62.3630523 264.50213652 68.65868752 281.08740519 67.89501953 296.19970703 C65.89223257 311.67861092 52.23035175 323.59901665 41.63525391 334.11083984 C40.01765041 335.71771135 38.41104415 337.33502323 36.80517578 338.95361328 C30.31288926 345.45445485 23.61669308 351.40645975 16.39111328 357.09423828 C15.32986034 357.96237359 14.26968517 358.83183132 13.21142578 359.70361328 C-7.62532183 376.25221863 -31.19668476 388.34749865 -56.60888672 396.09423828 C-57.34397461 396.32014648 -58.0790625 396.54605469 -58.83642578 396.77880859 C-79.98676788 403.0175366 -103.71140535 402.59060789 -123.48388672 392.40673828 C-130.01035316 388.81330697 -135.40246059 384.43554592 -140.60888672 379.09423828 C-141.36556641 378.36978516 -142.12224609 377.64533203 -142.90185547 376.89892578 C-166.97320524 352.45469796 -169.7980425 311.71704653 -170.04638672 279.15673828 C-169.88274869 268.37837057 -168.30084225 257.72090634 -166.60888672 247.09423828 C-166.50471436 246.43907227 -166.40054199 245.78390625 -166.29321289 245.10888672 C-162.22985725 219.65586104 -157.45303731 194.69097179 -149.60888672 170.09423828 C-149.23634766 168.91861328 -148.86380859 167.74298828 -148.47998047 166.53173828 C-146.44382704 160.27156459 -144.13731204 154.17036039 -141.60888672 148.09423828 C-141.19896484 147.09046143 -141.19896484 147.09046143 -140.78076172 146.06640625 C-136.45887569 135.48373723 -131.86929495 125.12721326 -126.59130859 114.98535156 C-125.63287801 113.14042032 -124.6905994 111.28790539 -123.74951172 109.43408203 C-115.04657734 92.49115947 -104.46848172 76.9684453 -92.60888672 62.09423828 C-91.81740234 61.08876953 -91.02591797 60.08330078 -90.21044922 59.04736328 C-84.35778023 51.73680923 -78.06897519 44.86629375 -71.60888672 38.09423828 C-70.99062012 37.44197266 -70.37235352 36.78970703 -69.73535156 36.11767578 C-50.2698944 15.69617398 -29.13308986 1.05234631 0 0 Z " fill="#FEFDFE" transform="translate(1537.60888671875,830.90576171875)"/>
<path d="M0 0 C14.2362891 11.95601768 23.85690425 29.28151946 25.50439453 47.92089844 C25.69387102 50.79758581 25.77801414 53.66356566 25.81689453 56.54589844 C25.84589844 57.27035156 25.87490234 57.99480469 25.90478516 58.74121094 C25.96586268 63.92810194 24.939748 66.82044101 21.50439453 70.92089844 C16.49118884 75.18212328 10.62187797 75.4848349 4.27392578 75.23730469 C-1.46043929 74.58217976 -4.74701269 72.21457864 -8.35180664 67.79394531 C-10.51601754 64.2499056 -10.84007725 60.28329171 -11.43310547 56.23339844 C-13.21048945 46.04232419 -15.88736662 36.79093178 -24.42919922 30.19824219 C-33.88660031 24.35217384 -42.00731092 22.69939617 -52.93310547 22.60839844 C-54.05910156 22.57939453 -55.18509766 22.55039062 -56.34521484 22.52050781 C-66.58655228 22.44394807 -76.69909981 24.34272526 -84.73779297 31.12011719 C-90.48845953 37.0113556 -92.87106916 42.18215729 -93.12060547 50.48339844 C-92.75446125 58.55484429 -91.29558239 64.607955 -85.30810547 70.23339844 C-78.57944595 75.29815204 -70.35211132 77.81051299 -62.43310547 80.42089844 C-61.51408447 80.72640625 -60.59506348 81.03191406 -59.64819336 81.34667969 C-54.27919384 83.1013462 -48.92998167 84.62488698 -43.43310547 85.92089844 C-19.2517562 91.71460243 8.16282554 101.63360923 22.18408203 123.54589844 C25.72284406 129.74313344 28.27547098 136.15411515 30.50439453 142.92089844 C30.83439453 143.91089844 31.16439453 144.90089844 31.50439453 145.92089844 C33.36146108 172.08202957 30.2871441 194.11581055 12.74658203 214.49121094 C-2.75838962 231.29276559 -24.75090159 238.23004367 -47.14794922 239.17089844 C-72.67969852 239.75712102 -95.51807457 233.04199564 -114.25732422 215.28417969 C-126.91687481 201.91763848 -137.00991522 181.68068413 -137.49560547 162.92089844 C-137.58841797 161.1071875 -137.58841797 161.1071875 -137.68310547 159.25683594 C-137.72799731 157.91579419 -137.76964518 156.57464005 -137.80810547 155.23339844 C-137.84548828 153.99203125 -137.88287109 152.75066406 -137.92138672 151.47167969 C-137.4175725 147.27014642 -136.12644227 145.19140854 -133.49560547 141.92089844 C-127.71235233 137.72803991 -121.48260664 137.0338184 -114.49560547 137.92089844 C-109.82565259 139.50828721 -105.78937714 141.20077019 -102.77685547 145.20605469 C-101.33595224 148.25918806 -100.84929162 150.82524666 -100.43310547 154.17089844 C-100.27068359 155.31945312 -100.10826172 156.46800781 -99.94091797 157.65136719 C-99.68241023 159.54935823 -99.42605062 161.44764919 -99.17529297 163.34667969 C-97.47977669 173.21314141 -91.69323385 181.92048163 -83.99560547 188.17480469 C-68.86107483 198.74532843 -51.66801708 200.82199407 -33.74560547 197.79589844 C-23.40852966 195.49043029 -15.48376391 190.76812457 -9.49560547 181.92089844 C-4.84417061 174.12249874 -4.40457354 165.81185164 -5.49560547 156.92089844 C-8.00107991 148.484323 -12.82027408 143.6989939 -20.19091797 139.31933594 C-30.15022366 134.16309966 -40.84265115 131.36262543 -51.58398438 128.32788086 C-106.59450537 112.77753326 -106.59450537 112.77753326 -121.62060547 87.38574219 C-124.15516125 82.70209432 -126.06261898 78.04401074 -127.49560547 72.92089844 C-127.85138672 71.74785156 -128.20716797 70.57480469 -128.57373047 69.36621094 C-129.92477015 63.84941162 -129.82510424 58.32128966 -129.80810547 52.67089844 C-129.82421875 51.61515625 -129.84033203 50.55941406 -129.85693359 49.47167969 C-129.86742271 32.33246784 -123.54274897 17.35869651 -111.77050781 5.00048828 C-83.16971491 -23.60030462 -31.59059312 -25.04526691 0 0 Z " fill="#5E0C72" transform="translate(1064.49560546875,394.0791015625)"/>
<path d="M0 0 C9.5386978 6.1471608 12.81716807 15.2138199 15.125 25.875 C22.72790255 65.52294885 10.97047111 110.80863269 -2.19042969 147.98730469 C-3.03615234 150.38365693 -3.85841599 152.78528838 -4.6640625 155.1953125 C-6.81304967 161.50362967 -9.31424042 167.40042258 -12.41015625 173.30078125 C-13.81167443 176.06993476 -15.10975878 178.83499194 -16.37109375 181.66796875 C-25.72818053 202.49059312 -36.67394014 218.71332222 -58.1875 227.8125 C-68.67584883 231.62277307 -81.70898016 233.10828379 -92.31640625 228.9375 C-96.29033274 226.54816632 -99.13047642 222.92654717 -101.1875 218.8125 C-101.5544836 213.07287656 -100.51425854 208.17765837 -99.0625 202.6875 C-98.84021729 201.8214917 -98.61793457 200.9554834 -98.38891602 200.06323242 C-96.50980308 192.82841998 -94.44175456 185.65030206 -92.35351562 178.47363281 C-90.57147706 172.30096435 -89.01559801 166.10499634 -87.58349609 159.84301758 C-85.18210342 149.35344509 -82.27277195 139.01977615 -79.18383789 128.71533203 C-77.36528171 122.57727457 -75.77068364 116.38981906 -74.1875 110.1875 C-72.18735778 102.3823473 -69.96996232 94.75748659 -67.3359375 87.140625 C-66.2252947 83.9220275 -65.18933528 80.69146098 -64.1875 77.4375 C-63.86265625 76.38433594 -63.5378125 75.33117187 -63.203125 74.24609375 C-62.46881342 71.76355575 -61.77346654 69.28613445 -61.109375 66.78515625 C-55.27414467 45.17217915 -44.0243852 28.19238406 -28.54785156 12.22412109 C-27.32397123 10.95411462 -26.12514195 9.66008045 -24.9296875 8.36328125 C-17.86413841 0.8682576 -10.41519796 -3.88017179 0 0 Z " fill="#600C72" transform="translate(1278.1875,945.1875)"/>
<path d="M0 0 C4.48336684 2.52357175 8.08674388 5.32273163 9.75 10.3125 C11.99708505 24.5914455 4.45827681 40.45475904 -0.09375 53.74609375 C-1.32787128 57.5526908 -2.37530138 61.37694774 -3.375 65.25 C-4.51777425 69.65264025 -5.72159573 73.89248985 -7.40625 78.11328125 C-11.72990625 89.3828112 -15.14803295 101.07575436 -18.515625 112.65625 C-21.71570024 123.59143499 -25.29729481 134.34836832 -29.07299805 145.09838867 C-30.95177264 150.47307569 -32.76346428 155.81640923 -34.25 161.3125 C-36.12443564 168.20278656 -38.43206812 174.9349396 -40.75 181.6875 C-41.13027344 182.80640625 -41.51054688 183.9253125 -41.90234375 185.078125 C-47.08317648 200.02904021 -54.54406725 212.80497225 -68.4375 221.25 C-74.86688883 223.04179689 -81.54069648 223.76756111 -87.87890625 221.28125 C-101.27692967 213.12001746 -104.81507192 196.28981686 -108.5 182.08129883 C-111.01065223 171.74179813 -111.87672023 162.89191745 -110.25 152.3125 C-110.12415527 151.43932129 -109.99831055 150.56614258 -109.86865234 149.66650391 C-104.53584377 113.23081878 -95.97923064 74.27161065 -73.25 44.3125 C-72.64027344 43.49523437 -72.03054688 42.67796875 -71.40234375 41.8359375 C-69.41573098 39.26598669 -67.36005625 36.78218323 -65.25 34.3125 C-64.81703613 33.8057373 -64.38407227 33.29897461 -63.93798828 32.77685547 C-51.16783692 17.98872683 -21.32921434 -9.86275701 0 0 Z " fill="#5F0C72" transform="translate(1017.25,973.6875)"/>
<path d="M0 0 C-0.65676736 3.89452309 -1.8034632 7.33074836 -3.265625 10.99609375 C-3.97187012 12.76980347 -3.97187012 12.76980347 -4.69238281 14.5793457 C-5.2109754 15.86564451 -5.73019934 17.15168891 -6.25 18.4375 C-6.64898499 19.42814957 -6.64898499 19.42814957 -7.05603027 20.43881226 C-20.17018618 52.96466523 -33.98593898 85.83072058 -52 116 C-52.73549072 117.23484131 -52.73549072 117.23484131 -53.48583984 118.49462891 C-63.64021883 135.43524211 -74.79075783 151.48365476 -87 167 C-87.99580078 168.28777344 -87.99580078 168.28777344 -89.01171875 169.6015625 C-102.51386995 186.85583279 -121.0597339 208.55163821 -144.0859375 211.37890625 C-152.61701998 211.85510682 -152.61701998 211.85510682 -156.26171875 209.6015625 C-162.7751893 202.67835085 -165.37297159 193.93569672 -165.20727539 184.60986328 C-164.87463934 180.42154831 -163.78509038 176.61068372 -162.5 172.625 C-162.23082764 171.76704834 -161.96165527 170.90909668 -161.68432617 170.02514648 C-145.88317396 120.83660368 -113.41336226 74.29009593 -72 43 C-70.79132654 42.06293855 -69.58301999 41.12540372 -68.375 40.1875 C-16.17662298 0 -16.17662298 0 0 0 Z " fill="#600C72" transform="translate(614,1501)"/>
<path d="M0 0 C6.67876236 2.58775198 11.08936042 7.53595459 14 14 C16.2232107 27.33926417 4.60277921 41.58251163 -1.72729492 52.66455078 C-6.12045844 60.37214061 -10.33662393 68.16679785 -14.5 76 C-19.05473304 84.56543943 -23.68920951 93.07500405 -28.5 101.5 C-33.37030235 110.03074601 -38.06803154 118.64432331 -42.6875 127.3125 C-47.48189302 136.30726518 -52.32545076 145.26794979 -57.30078125 154.1640625 C-60.42327521 159.74739335 -63.51065481 165.35007753 -66.59918213 170.95223999 C-67.62399266 172.81067325 -68.6495511 174.66869197 -69.67529297 176.52661133 C-72.87796645 182.32901494 -76.07595086 188.13386742 -79.25732422 193.94798279 C-80.68152609 196.55004602 -82.10844908 199.15061238 -83.5355835 201.75106812 C-84.20788012 202.97788459 -84.87887077 204.20541786 -85.54840088 205.43374634 C-98.37393637 228.96081992 -98.37393637 228.96081992 -103.84765625 231.48046875 C-110.09763053 232.98908323 -116.52662157 233.0792924 -122.4375 230.5 C-123.283125 229.675 -124.12875 228.85 -125 228 C-125.55558594 227.48695313 -126.11117188 226.97390625 -126.68359375 226.4453125 C-131.42895456 221.33829602 -131.66506993 216.56175486 -131.52197266 209.79492188 C-130.61409069 203.19430576 -127.40967209 198.0445614 -124 192.4375 C-123.26982897 191.1852109 -122.54292635 189.93101111 -121.8190918 188.67504883 C-120.3155457 186.07204276 -118.79844874 183.47771613 -117.27099609 180.88867188 C-114.00337354 175.32538494 -110.90916533 169.66744641 -107.81085205 164.00872803 C-106.81261916 162.18771738 -105.81013025 160.36911832 -104.80615234 158.55126953 C-99.99083847 149.83074909 -95.23843059 141.07689619 -90.50439453 132.31201172 C-87.0462281 125.91488755 -83.54675733 119.54299322 -80.00488281 113.19189453 C-75.4126589 104.95674833 -70.86190808 96.69877345 -66.30981445 88.44140625 C-65.61279874 87.17708015 -64.91577722 85.91275726 -64.21875 84.6484375 C-63.87035568 84.01645447 -63.52196136 83.38447144 -63.16300964 82.7333374 C-60.74813651 78.35383412 -58.32824102 73.97713254 -55.90625 69.6015625 C-54.5621263 67.17208154 -53.21844976 64.74235369 -51.875 62.3125 C-51.54464752 61.71519073 -51.21429504 61.11788147 -50.87393188 60.50247192 C-46.64795015 52.85723626 -42.4768057 45.18587459 -38.3581543 37.48217773 C-17.27928584 -1.9271384 -17.27928584 -1.9271384 0 0 Z " fill="#5D0C72" transform="translate(1239,390)"/>
<path d="M0 0 C4.46890833 3.24214918 6.45542269 6.68858618 7.8359375 12.03515625 C9.18384692 20.76661395 8.87908835 29.25931972 5.1875 37.3125 C4.47400391 38.91544922 4.47400391 38.91544922 3.74609375 40.55078125 C-8.40804379 66.35364864 -30.10956133 83.798898 -56.5 93.6953125 C-61.74062128 95.39851442 -66.25717266 96.68701645 -71.8125 96.3125 C-74.1875 94.8125 -74.1875 94.8125 -75.8125 93.3125 C-74.87535291 89.0396458 -72.88410686 85.53076816 -70.75 81.75 C-70.31880859 80.97986572 -69.88761719 80.20973145 -69.44335938 79.41625977 C-64.00167194 69.77039967 -58.31526226 60.26614644 -52.64453125 50.75390625 C-49.9668842 46.26192588 -47.3157442 41.75620173 -44.69018555 37.23364258 C-40.92419365 30.75922656 -37.03084771 24.37571288 -33 18.0625 C-32.55551514 17.35851074 -32.11103027 16.65452148 -31.65307617 15.92919922 C-29.05889823 11.91615481 -26.34591457 8.57725826 -22.8125 5.3125 C-22.27625 4.81363281 -21.74 4.31476562 -21.1875 3.80078125 C-14.87758332 -1.59491455 -7.72565498 -4.03432723 0 0 Z " fill="#600D73" transform="translate(1540.8125,901.6875)"/>
<path d="M0 0 C0.66 0.33 1.32 0.66 2 1 C-0.97 3.97 -3.94 6.94 -7 10 C-7.66 9.67 -8.32 9.34 -9 9 C-6 6 -3 3 0 0 Z " fill="#732A83" transform="translate(1522,903)"/>
<path d="M0 0 C0.66 0.33 1.32 0.66 2 1 C-0.64 3.64 -3.28 6.28 -6 9 C-6 6 -6 6 -3.5625 3.375 C-2.716875 2.59125 -1.87125 1.8075 -1 1 C-0.67 0.67 -0.34 0.34 0 0 Z " fill="#762E86" transform="translate(1458,1068)"/>
<path d="M0 0 C0.66 0.33 1.32 0.66 2 1 C-0.31 3.31 -2.62 5.62 -5 8 C-5.33 7.34 -5.66 6.68 -6 6 C-4 4 -2 2 0 0 Z " fill="#4E2B7C" transform="translate(934,534)"/>
</svg>
